<svg width="540" height="122" viewBox="0 0 540 122" fill="none" xmlns="http://www.w3.org/2000/svg">
<path d="M74.97 0.291059L75.55 8.31106H86.98V0.291059H111.48C113.95 2.18106 112.8 5.55105 112.98 8.30105H123.99C124.09 5.97105 123.34 0.561061 126.45 0.231061C133.77 -0.548939 142.5 0.951059 149.99 0.291059C148.83 11.0911 153.86 8.06105 161.99 8.30105V0.291059H187.98L188.42 7.35106L199.99 8.29106V0.281064H225.98L226.56 8.30105H237.99V0.281064H263.99L264.57 8.30105H276V0.281064H302L302.58 8.30105H314.01V0.281064H340.01V8.29106L351.57 7.35106L352.01 0.291059H378.01V8.30105H389.01L389.44 1.23106L415.01 0.291059L415.44 7.36107L427.01 8.30105V0.291059H453L453.44 7.35106L465.01 8.29106V0.281064H491L491.44 9.34106L506.02 14.8111L512.5 8.30105L529.93 25.9211L525.07 33.7811L530.14 47.1411L540 47.2811V73.2811L530.11 73.4011L524.27 87.7911L529.89 93.9811L528.56 97.3511L512.36 112.211L506.36 106.201L491.1 111.381L491 120.281H468.5C467.99 120.281 466.4 121.871 465.01 121.281V113.281L454.58 113.271L453.99 121.291C453.63 121.781 452.71 120.291 452.5 120.291H427V113.301C424.12 113.871 417.23 110.661 415.44 113.231L414.43 120.311L390.67 120.331C388.88 119.901 388.71 114.741 390.01 113.301L379.64 112.441L378.14 113.931L378 120.291H352V113.291L341.58 112.411L340.15 113.941L340 120.291H314V113.291L303.58 112.411L302.15 113.941L302 120.291C295.17 120.441 288.29 120.091 281.45 120.241C274.61 120.391 274.66 123.171 275 113.281H265.57L263.54 121.031L237.99 120.291L237.56 113.221C236.51 111.711 227.46 111.741 226.43 113.221L226 120.291H199.99L199.56 113.221C198.51 111.711 189.46 111.741 188.43 113.221L188 120.291H161.99L161.86 113.431C153.71 111.071 149.15 110.401 149.43 120.311L125.64 120.151L124.14 118.651L124.01 112.281L114.64 112.421L113.14 113.921L113 120.281H86V113.271L75.58 113.261L75 121.271C73.6 121.861 72.01 120.271 71.51 120.271H49.01L48.91 111.371L34.48 106.291L27.64 112.201L9.97 94.7711L15.73 87.7811L9.89 73.3911L0 73.2711V47.2711L9.86 47.1311L15.71 33.7711L10.07 25.9011L27.5 8.28106L33.98 14.7911L48.56 9.32106L49 0.26106H75L74.97 0.291059ZM63.68 50.5111C54.71 52.5711 53.72 68.1411 63.94 70.8211C82.13 75.5911 82.7 46.1511 63.68 50.5111ZM266.68 50.5011C256.66 52.7911 256.29 70.9611 269.46 71.3711C285.9 71.8811 283.28 46.7111 266.68 50.5011ZM469.7 50.5211C457.03 53.1011 460.71 74.0411 475.24 71.0611C488.18 68.4111 485.5 47.3111 469.7 50.5211ZM41.47 60.2911C35.64 60.2811 29.79 60.3011 23.97 60.2911C22.74 77.1711 36.65 95.2711 53.12 98.6411C69.59 102.011 92.35 99.1711 109.52 99.2511C217.83 99.7811 328.62 101.391 438.52 100.331C450.52 100.221 464.78 101.011 476.46 100.271C498.99 98.8511 514.94 83.0311 515.97 60.2811H494.97C493.95 89.4811 452.99 89.941 450.53 61.2211L448.47 60.2811H291.96C291.66 89.9911 248.27 89.7711 247.97 60.2811L92.42 60.2411L89.4 61.2211C87.3 90.111 46.2 89.3211 44.86 60.4011C43.57 59.2811 42.25 60.2811 41.46 60.2811L41.47 60.2911Z" fill="#062F03"/>
<path d="M335.7 66.4614C342.67 65.0214 349.41 73.7514 343.41 80.2314C333.31 91.1414 321.2 69.4514 335.7 66.4614Z" fill="#062F03"/>
<path d="M132.691 66.4909C143.631 64.0509 147.281 81.3709 135.231 83.1209C126.071 84.4509 123.351 68.5809 132.691 66.4909Z" fill="#062F03"/>
<path d="M402.711 66.4709C414.231 64.1109 416.851 82.0209 405.321 83.0309C395.181 83.9209 393.961 68.2609 402.711 66.4709Z" fill="#062F03"/>
<path d="M208.682 80.0111C202.512 87.5711 189.672 79.3311 195.522 70.3311C202.312 59.8911 215.192 72.0511 208.682 80.0111Z" fill="#062F03"/>
</svg>
