<svg width="278" height="276" viewBox="0 0 278 276" fill="none" xmlns="http://www.w3.org/2000/svg">
<path d="M80.0629 256.784C80.8518 248.623 87.501 241.585 95.7862 241.029L262.512 241.049C268.796 241.332 277.089 249.392 277.089 255.618V275.048L276.506 275.631H80.6459L80.0629 275.048C80.4788 269.169 79.5033 262.57 80.0629 256.784Z" fill="#062F03"/>
<path d="M157.781 54.5112L189.259 136.504C172.238 132.638 155.061 138.809 143.985 152.045L119.697 69.6709C130.839 71.1671 142.33 68.3458 150.969 61.1059C153.157 59.2717 154.847 56.9245 156.837 54.927C157.156 54.6044 157.179 54.3713 157.777 54.5112H157.781Z" fill="#062F03"/>
<path d="M113.095 209.761C114.226 199.071 125.27 190.226 135.969 191.745C143.403 216.69 169.653 230.331 194.412 221.128C207.423 216.294 217.503 204.892 221.366 191.668C230.619 190.704 239.767 196.331 242.965 205.024C243.148 205.518 244.057 208.386 244.057 208.596V233.272H113.095C113.674 225.772 112.318 217.126 113.095 209.761Z" fill="#062F03"/>
<path d="M175.974 142.843C206.262 140.511 226.342 174.593 209.484 200.058C194.456 222.757 160.348 221.925 146.703 198.306C133.013 174.608 148.911 144.926 175.974 142.843ZM175.189 158.768C169.461 159.452 163.495 163.774 160.585 168.647C149.424 187.323 169.748 208.565 188.747 198.364C209.099 187.436 199.737 155.834 175.189 158.768Z" fill="#062F03"/>
<path d="M122.336 0.214147C148.272 -2.70433 166.385 24.7861 153.188 47.3877C140.915 68.4077 109.737 67.4634 98.514 45.9693C88.5539 26.8962 100.834 2.63131 122.336 0.214147ZM123.494 13.0306C101.483 15.8441 103.414 50.4344 126.875 49.8554C151.793 49.2375 149.756 9.67295 123.494 13.0306Z" fill="#062F03"/>
<path d="M33.2926 245.844C34.1903 246.761 35.4728 248.813 35.8808 250.056C36.6541 252.411 36.1217 255.851 36.9806 257.506C38.1153 259.698 43.175 259.554 44.438 264.427C46.0819 270.773 42.1802 275.153 35.9741 275.639C30.3936 276.078 19.7029 276.167 14.2002 275.619C7.39168 274.943 3.525 267.777 7.61708 262.045C9.63397 259.22 13.8582 259.356 14.3673 255.971C14.7908 253.158 14.0059 251.545 15.4903 248.545C18.7547 241.934 28.1824 240.602 33.3004 245.836L33.2926 245.844Z" fill="#062F03"/>
<path d="M87.4468 30.8017C87.781 35.469 88.3096 40.0779 89.8679 44.512C90.6335 46.6921 92.2423 48.8683 92.9729 50.7336C93.1128 51.0873 93.4975 51.437 93.1011 51.8023L51.6946 62.664C52.6 57.4994 51.9977 51.9422 49.938 47.1273C49.0365 45.021 47.3382 43.4394 47.0273 41.2943L87.443 30.7979L87.4468 30.8017Z" fill="#062F03"/>
<path d="M39.1226 44.1548C58.1141 63.1695 27.608 90.4851 10.6918 70.4482C-5.1597 51.6783 21.9654 26.9781 39.1226 44.1548ZM24.8139 44.5006C8.79146 45.2856 7.98703 68.6839 22.9175 71.0467C43.0009 74.2255 44.0075 43.5641 24.8139 44.5006Z" fill="#062F03"/>
<path d="M41.8941 204.624C44.8787 204.344 48.1702 205.261 50.7273 206.843C52.2817 217.079 42.0807 224.595 32.4781 221.595C27.9158 220.169 28.2888 218.428 29.649 214.145C31.3278 208.856 36.4108 205.141 41.8902 204.624H41.8941Z" fill="#062F03"/>
<path d="M24.7742 168.052C27.4595 167.484 31.0425 172 32.0646 174.204C34.9014 180.332 32.9661 188.582 27.1914 192.255C25.2366 193.498 23.9465 192.589 22.3609 191.291C15.9527 186.041 15.7623 175.428 21.9529 169.921C22.5824 169.361 24.0047 168.215 24.7703 168.052H24.7742Z" fill="#062F03"/>
<path d="M21.3205 220.39C11.3992 226.045 -1.19181 218.451 0.090612 206.929C9.77093 200.451 23.9669 208.584 21.3205 220.39Z" fill="#062F03"/>
<path d="M33.4292 83.6572V98.6188C33.4292 98.7703 32.9784 99.4931 32.7763 99.6175C31.8942 100.165 22.0895 100.154 20.3912 99.9944C19.6762 99.9284 17.4961 99.4038 17.4961 98.6149V83.6533C22.8278 84.6754 28.113 84.7958 33.4292 83.6533V83.6572Z" fill="#062F03"/>
<path d="M175.561 166.136C192.819 163.466 198.574 185.667 184.864 192.149C173.691 197.435 161.893 187.171 165.441 175.447C166.696 171.3 171.22 166.808 175.561 166.136Z" fill="#062F03"/>
<path d="M124.271 20.4142C139.839 18.1369 141.797 40.859 127.625 42.4173C113.141 44.0145 110.778 22.3883 124.271 20.4142Z" fill="#062F03"/>
<path d="M24.7989 51.8722C32.6449 51.1028 33.9274 62.8117 26.5943 63.8026C17.7223 64.9995 17.1044 52.6261 24.7989 51.8722Z" fill="#062F03"/>
</svg>
