<svg width="336" height="279" viewBox="0 0 336 279" fill="none" xmlns="http://www.w3.org/2000/svg">
<path d="M189.776 120.228C191.586 121.878 194.326 127.788 194.076 130.318C193.676 134.298 186.916 138.548 185.546 143.888C183.946 150.128 185.506 156.828 190.166 161.318C195.896 166.828 204.996 164.298 206.006 173.528C207.416 186.488 197.776 182.698 191.036 188.378C185.026 193.448 183.696 201.188 186.006 208.468C188.596 216.618 199.116 216.858 190.896 228.238C185.846 235.228 179.496 229.868 171.656 230.998C164.726 231.998 159.016 238.798 158.166 245.498C157.156 253.408 164.096 261.058 152.796 265.128C144.466 268.128 144.926 263.868 140.006 260.478C132.546 255.338 122.146 255.598 116.056 262.678C110.996 268.558 113.566 277.678 103.576 277.998C91.1055 278.398 95.3055 270.168 90.0655 263.418C85.9055 258.068 77.5655 255.698 71.0355 257.388C62.2855 259.648 59.4055 272.648 48.5755 261.898C43.6755 257.038 48.1155 250.508 46.9955 243.478C45.9555 236.958 38.8855 230.758 32.4655 229.998C24.4655 229.048 17.1855 236.028 12.8455 224.638C9.71554 216.438 15.2755 215.798 18.5155 210.868C23.6755 203.008 21.1355 192.128 13.5655 186.908C7.77554 182.918 0.355534 185.268 0.0155336 175.378C-0.384466 163.768 7.01554 167.158 13.5655 162.928C20.1155 158.698 22.5255 150.178 20.5855 142.878C18.3955 134.628 6.21552 131.518 15.6155 120.968C21.3055 114.588 25.8755 120.468 32.4355 119.858C38.9955 119.248 46.5355 112.328 47.8255 106.178C49.4555 98.4277 42.7855 92.3877 49.7055 87.0477C61.5855 77.8677 63.5155 91.5477 73.6455 92.8077C79.1855 93.4977 85.5355 91.9077 89.4555 87.7977C94.5755 82.4377 92.2255 73.8877 100.536 72.8877C114.696 71.1777 110.336 78.0677 115.046 85.4077C119.366 92.1477 128.356 94.4077 135.886 92.2277C144.246 89.8077 145.016 78.9877 156.416 87.0477C163.746 92.2377 157.256 98.1277 158.276 105.138C159.146 111.148 165.646 118.538 171.786 119.658C178.306 120.848 185.336 116.168 189.756 120.208L189.776 120.228ZM93.8555 114.198C72.5755 116.618 51.8555 134.368 45.0655 154.408C25.5455 211.968 90.3555 260.178 139.416 224.758C190.286 188.028 159.266 106.758 93.8655 114.208L93.8555 114.198Z" fill="#062F03"/>
<path d="M333.857 97.6979C331.077 100.488 322.367 97.3679 317.527 105.868C314.867 110.538 314.567 113.868 316.687 118.818C318.617 123.348 322.477 123.298 318.077 129.408C312.047 137.778 304.247 126.658 294.587 132.908C284.987 139.128 292.717 149.078 285.457 152.778C275.387 157.918 275.887 147.988 268.817 145.678C263.407 143.918 258.867 144.188 254.567 147.888C249.057 152.618 251.137 158.318 241.817 156.668C232.037 154.938 240.127 142.908 228.327 138.168C217.537 133.838 213.257 143.818 206.537 139.948C196.587 134.218 209.607 126.648 202.547 115.948C196.707 107.108 186.167 112.618 182.687 106.818C176.097 95.8379 192.337 96.7079 191.147 83.3979C190.037 71.0379 174.487 74.3079 179.587 60.8479C181.117 56.8079 188.497 58.1479 192.457 55.7479C195.727 53.7679 199.207 47.2179 199.047 43.4879C198.757 36.6379 190.847 34.7779 196.117 27.4079C202.507 18.4679 209.117 30.7879 219.057 24.3579C228.997 17.9279 221.487 7.7379 228.737 4.0379C239.587 -1.5021 239.327 12.5479 250.587 12.7479C263.417 12.9779 261.637 -1.3121 271.347 0.0979037C281.727 1.6079 274.827 15.3379 286.377 19.1279C297.377 22.7379 300.507 12.9279 308.057 17.4479C316.177 22.3079 308.977 26.9179 309.017 33.4079C309.047 37.9879 313.207 44.2679 317.527 45.9679C322.317 47.8579 327.447 45.2179 330.567 48.9279C338.807 58.7379 324.957 60.5879 323.337 68.6179C321.897 75.7379 324.537 79.5379 329.607 83.8879C331.527 85.5379 334.697 85.1679 335.707 88.8679C336.177 90.6079 334.917 96.6279 333.887 97.6579L333.857 97.6979ZM249.857 31.1979C226.127 34.0979 207.077 58.5479 209.207 82.2979C213.287 127.798 273.567 142.648 297.497 103.838C319.217 68.6179 290.517 26.2379 249.857 31.1979Z" fill="#062F03"/>
</svg>
