<svg width="875" height="819" viewBox="0 0 875 819" fill="none" xmlns="http://www.w3.org/2000/svg">
<path d="M42.021 664.294H23.8196L20.5302 678H0.355164L20.5302 615.501H46.2973L65.5952 678H45.3105L42.021 664.294ZM32.8107 628.988L26.3415 652.123H39.3895L33.2493 628.988H32.8107ZM132.817 643.352V674.601C127.92 676.209 123.278 677.379 118.892 678.11C114.506 678.841 110.815 679.206 107.818 679.206C97.8765 679.206 90.0916 676.611 84.463 671.421C78.8345 666.231 76.0202 658.264 76.0202 647.518C76.0202 636.553 78.9807 628.366 84.9016 622.957C90.8226 617.475 99.1557 614.734 109.901 614.734C115.53 614.734 122.291 615.574 130.186 617.256C130.186 618.717 130.04 620.91 129.747 623.834C129.455 626.685 129.162 628.695 128.87 629.865L124.923 629.755C120.098 629.609 116.334 629.536 113.629 629.536C105.515 629.536 101.093 630.011 100.362 630.961C99.1923 632.35 98.3517 634.507 97.84 637.431C97.4014 640.355 97.1821 643.169 97.1821 645.873C97.1821 650.771 97.7303 654.572 98.8268 657.277C99.9233 659.981 101.605 661.882 103.871 662.978C106.137 664.075 109.207 664.623 113.081 664.623H113.519V643.352H132.817ZM207.817 678H187.094L183.366 662.211C183.219 661.626 182.963 660.639 182.598 659.25C182.306 657.788 181.94 656.728 181.502 656.071C181.063 655.34 180.442 654.864 179.638 654.645C177.591 654.718 174.594 654.755 170.646 654.755V678H150.91V616.049C159.755 615.392 168.015 615.063 175.69 615.063C182.635 615.063 188.263 615.647 192.576 616.817C196.889 617.913 200.105 619.851 202.225 622.628C204.418 625.333 205.514 629.061 205.514 633.812C205.514 638.271 204.491 641.78 202.444 644.338C200.397 646.824 197.108 648.322 192.576 648.834V649.492C195.134 649.711 197.254 650.552 198.935 652.014C200.69 653.403 201.859 655.193 202.444 657.386L207.817 678ZM170.646 642.365C171.304 642.438 172.584 642.474 174.484 642.474C180.113 642.474 183.402 641.999 184.352 641.049C185.23 640.172 185.668 638.125 185.668 634.909C185.668 631.912 184.864 629.865 183.256 628.768C181.721 627.672 179.162 627.124 175.581 627.124C174.777 627.124 173.132 627.197 170.646 627.343V642.365ZM253.768 679.425C242.876 679.425 234.689 676.867 229.207 671.75C223.797 666.56 221.093 658.264 221.093 646.86C221.093 635.676 224.09 627.526 230.084 622.409C236.078 617.292 244.009 614.734 253.877 614.734C274.637 614.734 285.017 625.077 285.017 645.764C285.017 656.217 282.458 664.44 277.342 670.434C272.298 676.428 264.44 679.425 253.768 679.425ZM253.329 666.487C255.376 666.487 257.093 666.158 258.482 665.5C259.871 664.769 260.968 663.527 261.772 661.772C263.307 658.775 264.074 653.878 264.074 647.08C264.074 640.428 263.307 635.603 261.772 632.606C260.237 629.536 257.422 627.928 253.329 627.782C251.794 627.782 250.186 627.964 248.504 628.33C246.896 628.622 245.873 629.061 245.434 629.646C244.557 630.669 243.863 632.862 243.351 636.224C242.912 639.514 242.693 643.132 242.693 647.08C242.693 653.22 243.278 657.715 244.448 660.566C245.252 662.686 246.385 664.221 247.847 665.171C249.309 666.048 251.136 666.487 253.329 666.487ZM335.299 678H315.562V629.207H297.909V615.501H352.952V629.207H335.299V678ZM367.489 615.501H412.992V628.659H387.225V640.062H408.935V651.904H387.225V664.623H412.883V678H367.489V615.501ZM477.753 675.917C475.049 677.086 471.905 677.927 468.324 678.439C464.742 678.95 461.416 679.206 458.346 679.206C448.404 679.206 440.62 676.611 434.991 671.421C429.362 666.231 426.548 658.264 426.548 647.518C426.548 636.553 429.509 628.366 435.43 622.957C441.35 617.475 449.684 614.734 460.429 614.734C465.546 614.734 470.882 615.428 476.438 616.817C476.438 618.279 476.291 620.472 475.999 623.396C475.707 626.247 475.414 628.257 475.122 629.426H468.214C463.17 629.426 459.186 629.536 456.262 629.755C453.412 629.901 451.694 630.23 451.109 630.742C450.013 631.765 449.172 633.849 448.587 636.992C448.002 640.062 447.71 643.023 447.71 645.873C447.71 650.844 448.331 654.682 449.574 657.386C450.817 660.018 452.388 661.772 454.289 662.649C456.116 663.527 459.15 663.965 463.39 663.965C466.752 663.965 471.138 663.673 476.547 663.088L477.753 675.917ZM493.838 615.501H513.684V638.417H530.679V615.501H550.526V678H530.679V651.027H513.684V678H493.838V615.501ZM588.698 652.781V678H570.387V615.501H588.917L605.474 640.72C607.959 644.448 609.86 647.591 611.176 650.15H611.505V639.624V615.501H629.706V678H611.066L594.071 651.685L589.137 644.229H588.808L588.698 652.781ZM649.404 615.501H669.141V678H649.404V615.501ZM738.024 675.917C735.319 677.086 732.176 677.927 728.594 678.439C725.012 678.95 721.686 679.206 718.616 679.206C708.675 679.206 700.89 676.611 695.261 671.421C689.633 666.231 686.819 658.264 686.819 647.518C686.819 636.553 689.779 628.366 695.7 622.957C701.621 617.475 709.954 614.734 720.699 614.734C725.816 614.734 731.152 615.428 736.708 616.817C736.708 618.279 736.562 620.472 736.269 623.396C735.977 626.247 735.685 628.257 735.392 629.426H728.484C723.441 629.426 719.457 629.536 716.533 629.755C713.682 629.901 711.964 630.23 711.379 630.742C710.283 631.765 709.442 633.849 708.858 636.992C708.273 640.062 707.98 643.023 707.98 645.873C707.98 650.844 708.602 654.682 709.844 657.386C711.087 660.018 712.659 661.772 714.559 662.649C716.387 663.527 719.42 663.965 723.66 663.965C727.022 663.965 731.408 663.673 736.818 663.088L738.024 675.917ZM790.182 664.294H771.981L768.691 678H748.516L768.691 615.501H794.459L813.756 678H793.472L790.182 664.294ZM780.972 628.988L774.503 652.123H787.551L781.411 628.988H780.972ZM827.761 615.501H847.498V663.527H873.046V678H827.761V615.501ZM280.452 775.72C280.452 779.133 279.626 782.04 277.972 784.44C276.319 786.787 273.946 788.6 270.852 789.88C267.812 791.16 264.212 791.8 260.052 791.8C257.919 791.8 255.866 791.693 253.892 791.48C251.972 791.267 250.212 790.973 248.612 790.6C247.012 790.173 245.599 789.667 244.372 789.08V782.2C246.292 783.053 248.666 783.827 251.492 784.52C254.372 785.213 257.332 785.56 260.372 785.56C263.199 785.56 265.572 785.187 267.492 784.44C269.412 783.693 270.852 782.627 271.812 781.24C272.772 779.853 273.252 778.227 273.252 776.36C273.252 774.493 272.852 772.92 272.052 771.64C271.252 770.36 269.866 769.187 267.892 768.12C265.972 767 263.279 765.827 259.812 764.6C257.359 763.693 255.199 762.733 253.332 761.72C251.519 760.653 249.999 759.453 248.772 758.12C247.546 756.787 246.612 755.267 245.972 753.56C245.386 751.853 245.092 749.88 245.092 747.64C245.092 744.6 245.866 742.013 247.412 739.88C248.959 737.693 251.092 736.013 253.812 734.84C256.586 733.667 259.759 733.08 263.332 733.08C266.479 733.08 269.359 733.373 271.972 733.96C274.586 734.547 276.959 735.32 279.092 736.28L276.852 742.44C274.879 741.587 272.719 740.867 270.372 740.28C268.079 739.693 265.679 739.4 263.172 739.4C260.772 739.4 258.772 739.747 257.172 740.44C255.572 741.133 254.372 742.12 253.572 743.4C252.772 744.627 252.372 746.067 252.372 747.72C252.372 749.64 252.772 751.24 253.572 752.52C254.372 753.8 255.679 754.947 257.492 755.96C259.306 756.973 261.759 758.067 264.852 759.24C268.212 760.467 271.039 761.8 273.332 763.24C275.679 764.627 277.439 766.307 278.612 768.28C279.839 770.253 280.452 772.733 280.452 775.72ZM341.798 770.84C341.798 774.787 340.998 778.36 339.398 781.56C337.798 784.707 335.345 787.213 332.038 789.08C328.785 790.893 324.625 791.8 319.558 791.8C312.465 791.8 307.052 789.88 303.318 786.04C299.638 782.147 297.798 777.027 297.798 770.68V733.88H304.998V770.92C304.998 775.56 306.225 779.16 308.678 781.72C311.185 784.28 314.945 785.56 319.958 785.56C323.425 785.56 326.225 784.947 328.358 783.72C330.545 782.44 332.145 780.707 333.158 778.52C334.172 776.28 334.678 773.72 334.678 770.84V733.88H341.798V770.84ZM378.394 733.88C385.861 733.88 391.301 735.347 394.714 738.28C398.127 741.213 399.834 745.347 399.834 750.68C399.834 753.027 399.434 755.293 398.634 757.48C397.887 759.613 396.634 761.533 394.874 763.24C393.114 764.947 390.767 766.307 387.834 767.32C384.901 768.28 381.301 768.76 377.034 768.76H370.474V791H363.274V733.88H378.394ZM377.754 740.04H370.474V762.6H376.234C379.861 762.6 382.874 762.227 385.274 761.48C387.674 760.68 389.461 759.427 390.634 757.72C391.807 756.013 392.394 753.773 392.394 751C392.394 747.32 391.221 744.573 388.874 742.76C386.527 740.947 382.821 740.04 377.754 740.04ZM433.232 733.88C440.698 733.88 446.138 735.347 449.552 738.28C452.965 741.213 454.672 745.347 454.672 750.68C454.672 753.027 454.272 755.293 453.472 757.48C452.725 759.613 451.472 761.533 449.712 763.24C447.952 764.947 445.605 766.307 442.672 767.32C439.738 768.28 436.138 768.76 431.872 768.76H425.312V791H418.112V733.88H433.232ZM432.592 740.04H425.312V762.6H431.072C434.698 762.6 437.712 762.227 440.112 761.48C442.512 760.68 444.298 759.427 445.472 757.72C446.645 756.013 447.232 753.773 447.232 751C447.232 747.32 446.058 744.573 443.712 742.76C441.365 740.947 437.658 740.04 432.592 740.04ZM522.789 762.36C522.789 766.787 522.229 770.813 521.109 774.44C519.989 778.013 518.309 781.107 516.069 783.72C513.882 786.333 511.136 788.333 507.829 789.72C504.576 791.107 500.789 791.8 496.469 791.8C491.989 791.8 488.096 791.107 484.789 789.72C481.482 788.28 478.736 786.28 476.549 783.72C474.362 781.107 472.736 777.987 471.669 774.36C470.602 770.733 470.069 766.707 470.069 762.28C470.069 756.413 471.029 751.293 472.949 746.92C474.869 742.547 477.776 739.133 481.669 736.68C485.616 734.227 490.576 733 496.549 733C502.256 733 507.056 734.227 510.949 736.68C514.842 739.08 517.776 742.493 519.749 746.92C521.776 751.293 522.789 756.44 522.789 762.36ZM477.669 762.36C477.669 767.16 478.336 771.293 479.669 774.76C481.002 778.227 483.056 780.893 485.829 782.76C488.656 784.627 492.202 785.56 496.469 785.56C500.789 785.56 504.309 784.627 507.029 782.76C509.802 780.893 511.856 778.227 513.189 774.76C514.522 771.293 515.189 767.16 515.189 762.36C515.189 755.16 513.696 749.533 510.709 745.48C507.722 741.373 503.002 739.32 496.549 739.32C492.229 739.32 488.656 740.253 485.829 742.12C483.056 743.933 481.002 746.573 479.669 750.04C478.336 753.453 477.669 757.56 477.669 762.36ZM557.609 733.88C562.356 733.88 566.249 734.493 569.289 735.72C572.382 736.893 574.676 738.68 576.169 741.08C577.662 743.48 578.409 746.493 578.409 750.12C578.409 753.16 577.849 755.693 576.729 757.72C575.609 759.747 574.169 761.373 572.409 762.6C570.702 763.773 568.889 764.707 566.969 765.4L582.649 791H574.249L560.409 767.4H549.049V791H541.849V733.88H557.609ZM557.209 740.12H549.049V761.32H557.609C560.702 761.32 563.236 760.92 565.209 760.12C567.182 759.267 568.622 758.04 569.529 756.44C570.489 754.84 570.969 752.84 570.969 750.44C570.969 747.933 570.462 745.933 569.449 744.44C568.489 742.947 566.996 741.853 564.969 741.16C562.942 740.467 560.356 740.12 557.209 740.12ZM616.095 791H608.895V740.2H591.055V733.88H633.855V740.2H616.095V791Z" fill="black"/>
<path d="M222 319.001L185.5 319.001L198 362.5C275.6 365.3 274 431 262 460.5L299.5 499L354.5 518.501C371.5 439.001 400 411.167 419.5 389.501C461.9 346.701 515.5 328.001 537 324.001C486.6 342.623 451 372.76 439.5 385.501C384.5 442.501 377 493.501 374 524.001L435 531.501C436.6 474.301 475 418.334 494 397.501C552 327.901 648.167 310.167 689 310.001L693 301C519.4 294.6 429.833 322.667 409 337.501C366.6 357.901 326 422.001 311 451.501C307.8 451.901 297.667 446.001 293 443.001C291.667 445.501 289.7 448.901 292.5 442.501C295.3 436.101 295.333 424.834 295 420.001L315 411.501L306.5 382.501L287 383.001C285.4 378.601 277.833 368.667 274.5 365.001L284 350.001L262 331.501L244.5 345.001C236.5 340.601 227.5 338.167 224 337.501L222 319.001Z" fill="#062F03"/>
<path d="M525.5 384.5C470.3 429.7 457.167 499.667 457.5 529C487.9 551.4 506.5 530.333 512 517C512.8 466.6 550 417 568.5 398.5C606.5 354.9 664 332.333 688 326.5V314C601 318.5 543.5 366 525.5 384.5Z" fill="#062F03"/>
<path d="M532.5 513C537.167 468.667 574.1 372.4 684.5 342C677.5 420 632.5 478.5 532.5 513Z" fill="#062F03"/>
<path d="M326.5 400.5C342 375.7 373.333 348.166 389.5 337C306.7 295.399 217.333 296.333 184 302L184.5 306C241 301 298.5 333.5 326.5 400.5Z" fill="#3E9D03"/>
<path d="M228.499 255.5C216.899 262.7 214.332 279.167 214.499 286.5C225.698 283.7 241.166 283.333 247.5 283.5C349.5 280 392 161 349.5 84.5C338.7 118.9 296.333 139.5 276.499 145.5C212.099 164.3 201.666 226.667 204.499 255.5C213.699 239.1 240.333 228 252.499 224.5C305.699 207.3 333.999 164.667 341.499 145.5C339.499 199.5 286.999 230.667 260.999 239.5C240.599 246.3 230.833 253 228.499 255.5Z" fill="#3E9D03"/>
<circle cx="500" cy="286" r="12.5" stroke="#062F03" stroke-width="11"/>
<path d="M354.5 262L351 267L347.5 268.5V277.5L351 279.5V287.5L347.5 290.5L351 298L355 299L359 303.5V310L366 317L373 316.5L378 320L379.5 324L387.5 326L391 323H397L400 325L409.5 324L411 320L416.5 316.5H422.5L429 310.5V304.5L431.5 299.5H436L438 289.5L435.5 287.5V281L439 279L438 268L433 264V255L429 249L423 248.5L419 244.5V240.5L411 235.5L406 237.5H401L397 233.5H387.5L384 238.5H378L374.5 236L366.5 241V246L362.5 250L357.5 249.5L352 257.5L354.5 262Z" fill="#062F03"/>
<circle cx="22" cy="22" r="22" transform="matrix(-1 0 0 1 417 258)" fill="white"/>
<circle cx="11" cy="11" r="11" transform="matrix(-1 0 0 1 406 269)" fill="#062F03"/>
<path d="M374 225.5C376 224.7 377.167 221.5 377.5 220H386L394 193C390 192.6 393.333 186.833 395.5 184H451.5C454.167 187.667 457.7 194.6 450.5 193C456 209.5 458.5 222.5 460 233H473.5V194.5C473.5 192.101 474.833 190.167 475.5 189.5L482 185.5C484.4 185.1 484.333 188 484 189.5L479 194.5V233H520V269C499.2 250.2 480.333 268.167 473.5 279.5H450C440.8 225.9 397.167 223.834 376.5 229.5C371.7 229.9 372.834 227 374 225.5Z" fill="#062F03"/>
<path d="M395.894 213.034L400.394 196.534C401.194 192.534 403.727 191.867 404.894 192.034H422.394C427.194 191.634 426.728 194.867 425.894 196.534L416.894 220.034H397.894C393.894 220.034 394.895 216.034 395.894 213.034Z" fill="white"/>
<path d="M429.753 196.118C430.153 192.918 433.253 192.118 434.753 192.118H440.752C443.152 191.318 444.752 194.785 445.252 196.618L453.752 232.118C448.552 231.718 446.919 237.285 446.752 240.118C445.152 242.918 443.752 241.285 443.252 240.118C439.652 232.918 428.419 225.451 423.253 222.618C421.653 222.218 421.92 220.118 422.253 219.118L429.753 196.118Z" fill="white"/>
<path d="M551 143L560.5 135.5V131.5H570.5V135.5L579 143C581.8 145 583.167 149.833 583.5 151.5L595.5 230C567.001 220.5 541.5 230 536 235.5L546.5 151.5C546.1 147.9 549.833 144 551 143Z" fill="#062F03"/>
<rect x="528.629" y="84.7071" width="48.967" height="18.1233" transform="rotate(45.4753 528.629 84.7071)" stroke="#062F03"/>
<path d="M522.5 90.9824L569.5 138.982M556.5 113.482L543.5 125.482M537 118.982L550 106.482M530.5 111.982L543.5 99.4824M523 104.982L536.5 92.4824" stroke="#062F03"/>
<rect x="509.171" y="174.872" width="48.967" height="18.1233" transform="rotate(-42.5717 509.171 174.872)" stroke="#062F03"/>
<path d="M515.234 181.211L564.808 135.874M538.88 147.997L550.43 161.399M543.712 167.674L531.663 154.255M536.495 173.931L524.445 160.513M529.243 181.188L517.211 167.27" stroke="#062F03"/>
<rect x="613.686" y="96.6442" width="48.967" height="18.1233" transform="rotate(133.525 613.686 96.6442)" stroke="#062F03"/>
<path d="M607.238 91.0547L560.865 139.661M585.908 125.801L573.473 113.216M579.748 106.499L592.683 119.066M586.523 99.7646L599.458 112.332M593.263 92.0308L606.216 105.098" stroke="#062F03"/>
<rect x="610.193" y="192.253" width="48.967" height="18.1233" transform="rotate(-134.525 610.193 192.253)" stroke="#062F03"/>
<path d="M616 186L569 138M582 163.5L595 151.5M601.5 158L588.5 170.5M608 165L595 177.5M615.5 172L602 184.5" stroke="#062F03"/>
<path d="M570 294C570.4 280.8 561.5 273.833 557 272C558.209 272 559.601 272.526 561 273.313C561 268.763 556 264.875 553.5 263.5C556.667 263.399 563 265.476 563 274.598C563.883 275.23 564.732 275.918 565.5 276.59C565.167 272.257 562.3 259.3 551.5 252.5C556.907 253.942 567.63 259.798 568.941 279H585.5C586.804 276.972 588.107 275.574 589.338 274.598C588.892 270.232 589.338 258 596 253L595.993 253.016C594.713 255.903 591.339 263.518 591.339 273.313C593.463 272.248 595.18 272.273 596 272C587.6 275.2 585.5 288 585.5 294H570Z" fill="#062F03"/>
<path d="M585.5 274.598H572.5C572.419 273.781 572.401 272.767 572.5 271.698C572.5 265.857 563.833 252.799 559.5 247C565.9 249.4 571.784 261.334 573.926 267C574.156 266.638 574.418 266.301 574.715 266C574.144 260 572.4 247.3 570 244.5C567 241 576.5 245.655 577.5 264.578C577.815 264.527 578.148 264.5 578.5 264.5C581.528 246.5 585.095 243.667 586.5 244.5C583.3 251.3 581.833 260.946 581.5 264.919C584.833 259.113 592.8 246.9 598 244.5C593.822 250.334 585.218 263.001 584.232 267C585.358 268.55 586.001 270.958 585.5 274.598Z" fill="#062F03"/>
<path d="M602.5 294.572C602.9 281.372 594 274.405 589.5 272.572C590.709 272.572 592.101 273.098 593.5 273.885C593.5 269.335 588.5 265.447 586 264.072C589.167 263.971 595.5 266.049 595.5 275.17C596.383 275.802 597.232 276.49 598 277.163C597.667 272.829 594.8 259.873 584 253.073C589.407 254.515 600.13 260.37 601.441 279.572H618C619.304 277.544 620.607 276.146 621.838 275.17C621.392 270.804 621.838 258.573 628.5 253.573L628.493 253.589C627.213 256.476 623.839 264.09 623.839 273.885C625.963 272.82 627.68 272.845 628.5 272.572C620.1 275.772 618 288.572 618 294.572H602.5Z" fill="#062F03"/>
<path d="M618 275.17H605C604.919 274.354 604.901 273.339 605 272.27C605 266.429 596.333 253.371 592 247.573C598.4 249.973 604.284 261.906 606.426 267.573C606.656 267.21 606.918 266.873 607.215 266.573C606.644 260.573 604.9 247.873 602.5 245.073C599.5 241.573 609 246.227 610 265.15C610.315 265.099 610.648 265.073 611 265.073C614.028 247.073 617.595 244.239 619 245.073C615.8 251.873 614.333 261.518 614 265.491C617.333 259.685 625.3 247.473 630.5 245.073C626.322 250.906 617.718 263.573 616.732 267.573C617.858 269.122 618.501 271.53 618 275.17Z" fill="#062F03"/>
<path d="M637.5 294.572C637.9 281.372 629 274.405 624.5 272.572C625.709 272.572 627.101 273.098 628.5 273.885C628.5 269.335 623.5 265.447 621 264.072C624.167 263.971 630.5 266.049 630.5 275.17C631.383 275.802 632.232 276.49 633 277.163C632.667 272.829 629.8 259.873 619 253.073C624.407 254.515 635.13 260.37 636.441 279.572H653C654.304 277.544 655.607 276.146 656.838 275.17C656.392 270.804 656.838 258.573 663.5 253.573L663.493 253.589C662.213 256.476 658.839 264.09 658.839 273.885C660.963 272.82 662.68 272.845 663.5 272.572C655.1 275.772 653 288.572 653 294.572H637.5Z" fill="#062F03"/>
<path d="M653 275.17H640C639.919 274.354 639.901 273.339 640 272.27C640 266.429 631.333 253.371 627 247.573C633.4 249.973 639.284 261.906 641.426 267.573C641.656 267.21 641.918 266.873 642.215 266.573C641.644 260.573 639.9 247.873 637.5 245.073C634.5 241.573 644 246.227 645 265.15C645.315 265.099 645.648 265.073 646 265.073C649.028 247.073 652.595 244.239 654 245.073C650.8 251.873 649.333 261.518 649 265.491C652.333 259.685 660.3 247.473 665.5 245.073C661.322 250.906 652.718 263.573 651.732 267.573C652.858 269.122 653.501 271.53 653 275.17Z" fill="#062F03"/>
<circle cx="437.5" cy="274.5" r="264" stroke="#062F03" stroke-width="21"/>
</svg>
